<svg width="16" height="15" viewBox="0 0 16 15" fill="none" xmlns="http://www.w3.org/2000/svg">
<path d="M15.2739 6.99017L7.31461 0.0821628C7.25351 0.0294943 7.17556 0 7.0934 0H5.22893C5.07303 0 5.0014 0.19382 5.11938 0.294944L12.4972 6.69944H0.168539C0.0758427 6.69944 0 6.77528 0 6.86798V8.13202C0 8.22472 0.0758427 8.30056 0.168539 8.30056H12.4951L5.11728 14.7051C4.9993 14.8083 5.07093 15 5.22683 15H7.15449C7.19452 15 7.23455 14.9853 7.26404 14.9579L15.2739 8.00983C15.3468 7.94641 15.4053 7.86808 15.4454 7.78013C15.4854 7.69218 15.5062 7.59665 15.5062 7.5C15.5062 7.40335 15.4854 7.30782 15.4454 7.21987C15.4053 7.13192 15.3468 7.05359 15.2739 6.99017Z" fill="white"/>
</svg>
