<svg width="76" height="76" viewBox="0 0 76 76" fill="none" xmlns="http://www.w3.org/2000/svg">
<path d="M64.9166 28.5H60.1666V22.1666C60.1666 9.94383 50.2229 0 38 0C25.7771 0 15.8334 9.94383 15.8334 22.1666V23.75C15.8334 24.6252 16.5416 25.3334 17.4168 25.3334H23.75C24.6252 25.3334 25.3334 24.6252 25.3334 23.75V22.1666C25.3334 15.1823 31.0157 9.5 38 9.5C44.9843 9.5 50.6666 15.1823 50.6666 22.1666V28.5H11.0834C10.2082 28.5 9.5 29.2082 9.5 30.0834V69.6668C9.5 73.1597 12.3404 76 15.8334 76H60.1668C63.6596 76 66.5 73.1597 66.5 69.6666V30.0834C66.5 29.2082 65.7918 28.5 64.9166 28.5ZM42.7408 61.5753C42.7902 62.0221 42.6465 62.4705 42.3465 62.8061C42.0466 63.1416 41.6167 63.3334 41.1668 63.3334H34.8334C34.3835 63.3334 33.9536 63.1416 33.6536 62.8061C33.3536 62.4707 33.2098 62.0222 33.2594 61.5753L34.2582 52.5933C32.6362 51.4136 31.6668 49.5472 31.6668 47.5C31.6668 44.0071 34.5071 41.1666 38.0001 41.1666C41.4932 41.1666 44.3335 44.007 44.3335 47.5C44.3335 49.5472 43.3641 51.4136 41.7421 52.5933L42.7408 61.5753Z" fill="white"/>
</svg>
