<svg width="76" height="16" viewBox="0 0 76 16" fill="none" xmlns="http://www.w3.org/2000/svg">
<path d="M9.37437 5.78019L7.58371 0L5.79322 5.78019H0L4.68718 9.35234L2.89669 15.1333L7.58371 11.5596L12.2709 15.1333L10.4804 9.35234L15.1676 5.78019H9.37437Z" fill="#FFC700"/>
<path d="M24.5824 5.78019L22.7919 0L21.0013 5.78019H15.2081L19.8952 9.35234L18.1047 15.1333L22.7919 11.5596L27.4791 15.1333L25.6885 9.35234L30.3756 5.78019H24.5824Z" fill="#FFC700"/>
<path d="M39.7905 5.78019L38 0L36.2095 5.78019H30.4161L35.1033 9.35234L33.3128 15.1333L38 11.5596L42.6872 15.1333L40.8967 9.35234L45.5837 5.78019H39.7905Z" fill="#FFC700"/>
<path d="M54.9985 5.78019L53.208 0L51.4175 5.78019H45.6243L50.3115 9.35234L48.5209 15.1333L53.208 11.5596L57.8952 15.1333L56.1047 9.35234L60.7919 5.78019H54.9985Z" fill="#FFC700"/>
<path d="M68.4163 0L66.6256 5.78019H60.8324L65.5196 9.35234L63.7291 15.1333L68.4163 11.5596L73.1033 15.1333L71.3128 9.35234L76 5.78019H70.2068L68.4163 0Z" fill="#FFC700"/>
</svg>
